PathFileType	4	(X/Y/Z)	./resultDataOpenSim/trcMotMarkerGrf/sub09/qtm-03-04.trc
DataRate	CameraRate	NumFrames	NumMarkers	Units	OrigDataRate	OrigDataStartFrame	OrigNumFrames
250.000000	250.000000	7	24	m	250.000000	59	469
Frame#	Time	L.Toe.Tip			R.Toe.Tip			L.Ankle.Lat			R.Ankle.Lat			L.Ankle.Med			R.Ankle.Med			L.Heel			R.Heel			L.Knee.Lat			R.Knee.Lat			L.Knee.Med			R.Knee.Med			L.Thigh.Upper			R.Thigh.Upper			L.ASIS			R.ASIS			V.Sacral			L.Acromium			R.Acromium			C7			L.Elbow			R.Elbow			L.Wrist.Lat			R.Wrist.Lat
		X1	Y1	Z1	X2	Y2	Z2	X3	Y3	Z3	X4	Y4	Z4	X5	Y5	Z5	X6	Y6	Z6	X7	Y7	Z7	X8	Y8	Z8	X9	Y9	Z9	X10	Y10	Z10	X11	Y11	Z11	X12	Y12	Z12	X13	Y13	Z13	X14	Y14	Z14	X15	Y15	Z15	X16	Y16	Z16	X17	Y17	Z17	X18	Y18	Z18	X19	Y19	Z19	X20	Y20	Z20	X21	Y21	Z21	X22	Y22	Z22	X23	Y23	Z23	X24	Y24	Z24

59	0.232	-1.3801326	0.09061729	-0.048749668	-0.64222896	0.039526521	0.085619466	-1.4031577	0.24512601	-0.089245685	-0.78921049	0.05288432	0.11840539	-1.3774708	0.2286847	0.0034427448	-0.78085148	0.092919399	0.02849149	-1.4640848	0.29069366	-0.040563273	-0.85710686	0.030671105	0.069323005	-1.0300666	0.42371797	-0.11247337	-0.75454988	0.50701543	0.18294593	-1.0194563	0.41093199	0.012074542	-0.7670674	0.49466557	0.055390252	-0.98285013	0.82884837	-0.13174418	-0.9524851	0.86059425	0.24117144	-0.8898485	0.91434859	-0.078597257	-0.87994759	0.94300728	0.1610877	-1.052516	0.98685638	0.04504251	-0.87648514	1.3856209	-0.11152304	-0.91674741	1.384574	0.21450721	-0.96260961	1.4380283	0.048197844	-0.95039871	1.0169823	-0.18884873	-1.0590997	1.0478436	0.27968598	-0.7053296	0.90129014	-0.16759957	-0.94120676	0.80344724	0.30458052
60	0.236	-1.3674639	0.093446857	-0.050138679	-0.64224394	0.039506985	0.08556309	-1.3906449	0.24812918	-0.088865667	-0.78936136	0.052876157	0.11851537	-1.3640806	0.23119918	0.003412702	-0.78064059	0.092972859	0.02855162	-1.4518173	0.29339115	-0.039345449	-0.85720698	0.03066482	0.069318641	-1.0167277	0.4241693	-0.11182934	-0.75143711	0.50675564	0.18332542	-1.0078164	0.41138609	0.013018558	-0.76410842	0.49450373	0.055666344	-0.9763817	0.82968365	-0.13132109	-0.94531278	0.86242589	0.24178354	-0.88423741	0.91547319	-0.078441137	-0.87376706	0.94441682	0.16124407	-1.0466314	0.98844928	0.04540729	-0.87042692	1.3869057	-0.11147377	-0.90997462	1.3858171	0.21469455	-0.95670204	1.4395824	0.047881136	-0.94557021	1.0184832	-0.18803876	-1.0519997	1.0488199	0.28024522	-0.70183146	0.89984708	-0.16734484	-0.93296759	0.80469689	0.3044884
61	0.24	-1.3543895	0.096036161	-0.051404934	-0.64227921	0.039497107	0.085517932	-1.37783	0.25079882	-0.088486029	-0.78954494	0.052872384	0.11860763	-1.3508892	0.23331239	0.003613396	-0.78044141	0.093029612	0.028615278	-1.4394494	0.29573585	-0.038292047	-0.85731729	0.030648052	0.069292483	-1.0035075	0.42483577	-0.11113167	-0.74850134	0.50641246	0.18370362	-0.99486639	0.41192309	0.01395089	-0.76128486	0.49429976	0.055968195	-0.96996125	0.83066343	-0.13093871	-0.93841428	0.86431821	0.24232486	-0.87872429	0.9166981	-0.078339432	-0.86754632	0.94591208	0.16136069	-1.0407829	0.99005187	0.045787631	-0.86447679	1.3882633	-0.11146445	-0.90323622	1.3871424	0.21485335	-0.95081197	1.4412068	0.047581117	-0.9407935	1.0200244	-0.18725276	-1.0449386	1.0498399	0.28077856	-0.69840275	0.89843135	-0.16708974	-0.92470942	0.80604931	0.30437009
62	0.244	-1.3409372	0.098383265	-0.052551229	-0.64233001	0.03949908	0.085487435	-1.3647505	0.25313421	-0.08810701	-0.78975132	0.052891864	0.11868868	-1.338057	0.23487153	0.0041351827	-0.78026923	0.093087805	0.028687996	-1.4268042	0.29771628	-0.037624251	-0.85743537	0.030623607	0.069248932	-0.99034258	0.4256911	-0.11041382	-0.74565454	0.50601568	0.18406944	-0.98110861	0.4125797	0.014893362	-0.75864218	0.49407585	0.056344457	-0.96359107	0.83178557	-0.13059254	-0.93199852	0.86620515	0.24275191	-0.87321836	0.91804671	-0.078231296	-0.86123853	0.9474809	0.16147624	-1.0349519	0.99170297	0.04616736	-0.85874685	1.3896816	-0.11151253	-0.89653631	1.3885406	0.21498804	-0.94482894	1.4428524	0.04754838	-0.93604198	1.0216126	-0.18639613	-1.0378892	1.0509297	0.28130893	-0.6950674	0.89705385	-0.16685033	-0.91643515	0.80749399	0.30422663
63	0.248	-1.3271148	0.10050067	-0.053569991	-0.64239009	0.039511621	0.085477932	-1.3514568	0.25514619	-0.087737999	-0.78996475	0.052948089	0.11876987	-1.3254211	0.23600925	0.0048796216	-0.78014764	0.093142979	0.028766415	-1.4138443	0.29934523	-0.037330914	-0.8575539	0.030599248	0.069196891	-0.97707996	0.42672335	-0.10983087	-0.74280106	0.505631	0.18438902	-0.96734181	0.41339356	0.015867959	-0.75622744	0.49384726	0.056877308	-0.95728345	0.8330476	-0.13026934	-0.92593271	0.86807293	0.24310302	-0.86758035	0.91955141	-0.078040544	-0.85480928	0.94911151	0.16163094	-1.0291251	0.99342566	0.046538029	-0.85319217	1.391157	-0.11159918	-0.88987258	1.3900094	0.21510707	-0.9387524	1.4444952	0.047782222	-0.93130246	1.0232606	-0.18542127	-1.0308298	1.05212	0.28187284	-0.69188122	0.89571874	-0.16665894	-0.9081603	0.80902163	0.30406481
64	0.252	-1.3129335	0.10240104	-0.054434161	-0.64245664	0.039531463	0.085496964	-1.3379983	0.25685433	-0.087396279	-0.79016048	0.053021003	0.11886449	-1.3127736	0.23699932	0.0056624485	-0.78009748	0.093193847	0.028843823	-1.400706	0.30066456	-0.037189863	-0.85766325	0.03058277	0.069149212	-0.96355678	0.42794033	-0.10960015	-0.73990245	0.5053254	0.18461108	-0.95381058	0.41436429	0.016881309	-0.7540272	0.49362281	0.057561979	-0.9510523	0.83443738	-0.1299574	-0.92001637	0.86992625	0.24342744	-0.86173656	0.92122338	-0.077734034	-0.84826839	0.95079025	0.1618462	-1.0233033	0.99520176	0.046904229	-0.84770053	1.3926934	-0.11169603	-0.88323999	1.3915531	0.215216	-0.93263881	1.4461469	0.048145622	-0.92660001	1.0249841	-0.18436092	-1.0237587	1.0534166	0.28248575	-0.6888938	0.89442335	-0.16653679	-0.89990627	0.81063235	0.30389137
65	0.256	-1.298443	0.10407516	-0.055098568	-0.64253364	0.039558715	0.085553998	-1.324409	0.25828157	-0.087093975	-0.79031624	0.05306306	0.11899458	-1.2998791	0.23801507	0.0063001583	-0.78011278	0.09324596	0.028923192	-1.3875334	0.30169414	-0.036995939	-0.85775836	0.030577014	0.069114412	-0.94980486	0.42934187	-0.10971775	-0.73701453	0.50512856	0.18473238	-0.94029702	0.41545569	0.017928047	-0.7519527	0.49341613	0.058258919	-0.9448737	0.83593474	-0.12964301	-0.91425919	0.87174633	0.24371929	-0.85576001	0.92303384	-0.077352451	-0.84171407	0.95249181	0.16210637	-1.0174803	0.99700772	0.047268132	-0.84221469	1.3942953	-0.11178865	-0.87663604	1.3931765	0.21531507	-0.92653733	1.4478363	0.048522054	-0.92199374	1.0267928	-0.18327354	-1.0166824	1.0548034	0.28313608	-0.68609911	0.89316706	-0.16646435	-0.8916842	0.81234027	0.3037046
